<svg id="svg" version="1.1" xmlns="http://www.w3.org/2000/svg" xmlns:xlink="http://www.w3.org/1999/xlink" width="400" height="400" viewBox="0, 0, 400,400"><g id="svgg"><path id="path0" d="M0.000 200.000 L 0.000 400.000 200.000 400.000 L 400.000 400.000 400.000 200.000 L 400.000 0.000 200.000 0.000 L 0.000 0.000 0.000 200.000 M314.423 52.012 C 315.743 52.678,317.493 53.828,318.312 54.567 C 319.604 55.734,320.379 56.023,324.200 56.766 C 336.219 59.102,339.873 61.673,341.839 69.171 C 342.717 72.523,343.424 73.284,346.276 73.947 C 352.739 75.450,356.475 79.157,358.019 85.600 C 358.712 88.489,359.560 89.374,362.201 89.965 C 368.676 91.414,372.446 95.185,374.031 101.800 C 374.644 104.357,375.595 105.387,377.928 106.019 C 385.089 107.961,388.809 113.344,388.794 121.742 C 388.762 139.290,386.340 144.918,377.739 147.432 C 375.126 148.195,372.281 151.071,371.586 153.651 C 370.166 158.924,366.940 162.162,361.698 163.574 C 359.406 164.191,356.190 167.409,355.572 169.703 C 354.167 174.921,350.920 178.168,345.698 179.574 C 343.409 180.190,340.190 183.409,339.574 185.698 C 338.203 190.788,333.316 195.575,329.470 195.596 C 328.330 195.602,324.091 199.873,323.770 201.339 C 322.650 206.450,318.463 210.647,313.370 211.763 C 311.811 212.105,308.150 215.786,307.765 217.400 C 306.530 222.566,302.566 226.530,297.400 227.765 C 295.786 228.150,292.105 231.811,291.763 233.370 C 290.650 238.450,286.450 242.650,281.370 243.763 C 279.811 244.105,276.150 247.786,275.765 249.400 C 274.530 254.566,270.566 258.530,265.400 259.765 C 263.786 260.150,260.105 263.811,259.763 265.370 C 258.650 270.450,254.450 274.650,249.370 275.763 C 247.664 276.137,244.161 279.801,243.790 281.600 C 242.756 286.614,238.616 290.754,233.600 291.790 C 231.636 292.195,228.157 295.640,227.802 297.530 C 226.871 302.491,222.638 306.749,217.600 307.790 C 215.250 308.276,212.527 311.286,211.590 314.434 C 210.164 319.222,207.222 322.164,202.434 323.590 C 198.845 324.659,196.502 327.045,195.161 331.000 C 192.826 337.884,188.856 339.865,176.100 340.514 C 161.517 341.255,156.583 338.995,153.964 330.371 C 152.976 327.120,152.908 327.055,149.632 326.207 C 142.692 324.412,139.182 320.918,137.568 314.200 C 136.931 311.550,136.398 311.016,133.806 310.436 C 127.249 308.969,123.177 304.898,121.568 298.200 C 120.935 295.566,120.395 295.016,117.894 294.455 C 111.222 292.958,107.530 289.263,105.791 282.339 C 104.951 278.995,104.338 278.305,100.978 276.913 C 95.677 274.716,92.601 271.447,90.972 266.277 C 90.063 263.394,88.708 262.114,85.313 260.929 C 79.900 259.041,76.606 255.703,75.035 250.514 C 74.117 247.482,72.606 245.951,69.600 245.003 C 64.000 243.238,60.747 239.964,58.978 234.311 C 58.045 231.332,56.580 230.005,52.697 228.622 C 47.723 226.850,44.359 223.121,42.754 217.600 C 42.171 215.597,40.681 213.854,39.185 213.426 C 32.599 211.546,28.832 208.413,26.958 203.256 C 24.994 197.854,24.381 196.865,22.238 195.656 C 18.510 193.552,14.400 187.440,14.400 184.000 C 14.400 180.553,18.709 174.283,22.357 172.422 C 23.990 171.589,26.388 168.224,26.396 166.754 C 26.420 162.617,32.301 156.698,38.046 155.028 C 40.853 154.212,42.066 152.920,43.153 149.591 C 44.919 144.180,48.499 140.666,53.912 139.027 C 56.916 138.117,57.993 137.005,59.169 133.600 C 60.919 128.535,63.856 125.385,68.344 123.761 C 73.934 121.737,75.125 120.910,76.578 118.044 C 78.702 113.852,84.497 109.600,88.087 109.600 C 92.580 109.600,100.105 113.654,103.186 117.735 C 104.558 119.552,105.217 120.045,107.281 120.798 C 113.041 122.898,116.616 126.314,118.998 131.996 L 120.477 135.523 124.139 137.052 C 129.360 139.233,132.767 142.640,134.948 147.861 L 136.477 151.523 140.139 153.052 C 145.363 155.234,148.767 158.640,150.951 163.869 C 152.257 166.996,152.669 167.611,153.742 168.034 C 161.251 170.995,164.499 174.149,166.825 180.739 C 167.944 183.910,168.353 184.377,169.254 183.509 C 169.554 183.220,170.710 182.405,171.823 181.699 C 172.936 180.993,174.286 179.943,174.823 179.365 C 176.298 177.780,178.994 176.027,181.568 174.982 C 184.557 173.767,189.323 168.977,190.836 165.667 C 192.150 162.794,194.777 160.157,197.600 158.880 C 200.689 157.483,205.305 152.904,206.753 149.800 C 208.154 146.796,210.745 144.175,213.600 142.872 C 216.211 141.680,221.640 136.466,222.312 134.505 C 223.433 131.230,227.194 127.430,230.382 126.351 C 232.128 125.761,237.698 120.242,238.305 118.502 C 239.452 115.210,243.201 111.427,246.382 110.351 C 248.128 109.761,253.698 104.242,254.305 102.502 C 255.452 99.210,259.201 95.427,262.382 94.351 C 264.128 93.761,269.698 88.242,270.305 86.502 C 271.454 83.204,275.201 79.427,278.396 78.347 C 280.503 77.634,285.435 72.436,287.031 69.248 C 288.667 65.978,289.948 64.716,293.532 62.850 C 295.062 62.052,297.317 60.720,298.542 59.889 C 299.768 59.057,302.046 57.834,303.606 57.170 C 305.765 56.251,307.047 55.346,308.974 53.382 C 311.935 50.362,311.414 50.493,314.423 52.012 " stroke="none" fill="#fcfcfc" fill-rule="evenodd"></path><path id="path1" d="M85.400 121.834 C 82.435 124.549,78.788 126.994,74.453 129.173 C 70.437 131.193,68.046 133.316,65.728 136.920 C 63.255 140.767,61.142 142.922,57.430 145.384 C 53.667 147.878,51.486 150.059,49.411 153.400 C 47.335 156.742,44.743 159.328,41.000 161.793 C 36.545 164.726,34.736 166.756,32.974 170.800 C 31.445 174.310,28.706 179.339,26.721 182.282 L 25.587 183.964 26.933 186.082 C 28.821 189.051,32.122 195.361,33.233 198.125 C 34.395 201.015,36.803 203.567,41.000 206.358 C 45.373 209.267,46.485 210.388,49.460 214.885 C 52.061 218.819,53.622 220.354,57.600 222.888 C 60.574 224.783,62.983 227.243,65.155 230.600 C 67.446 234.143,69.850 236.548,73.400 238.850 C 76.934 241.141,78.857 243.064,81.151 246.600 C 83.779 250.651,85.699 252.564,89.359 254.781 C 93.070 257.028,96.171 259.917,98.408 263.211 C 103.321 270.446,106.413 270.725,111.612 264.400 C 112.787 262.970,114.223 261.350,114.802 260.800 C 117.813 257.942,119.916 256.111,120.933 255.462 C 123.213 254.006,125.276 251.809,126.780 249.235 C 128.499 246.293,133.548 241.201,137.119 238.809 C 139.824 236.997,141.362 235.401,143.356 232.338 C 145.235 229.449,150.035 224.885,153.588 222.608 C 155.813 221.182,156.757 220.229,158.439 217.718 C 161.187 213.613,166.769 207.529,168.969 206.239 C 172.669 204.071,174.976 200.483,173.966 198.469 C 172.087 194.724,170.737 193.199,169.061 192.931 C 166.905 192.587,163.645 189.387,161.183 185.200 C 159.068 181.604,154.961 177.404,150.622 174.400 C 148.042 172.615,147.004 171.559,145.111 168.800 C 142.086 164.389,139.791 162.024,136.158 159.571 C 132.449 157.069,130.931 155.551,128.429 151.842 C 125.976 148.209,123.611 145.914,119.200 142.889 C 116.438 140.995,115.387 139.960,113.603 137.378 C 110.461 132.833,105.789 128.283,103.351 127.394 C 99.004 125.808,94.037 123.416,91.241 121.562 C 87.683 119.203,88.305 119.174,85.400 121.834 " stroke="none" fill="#3a9ba9" fill-rule="evenodd"></path><path id="path2" d="M308.800 66.453 C 305.058 68.990,303.124 70.813,301.332 73.493 C 300.484 74.759,298.801 76.405,297.066 77.663 C 293.448 80.285,287.811 85.944,285.802 88.971 C 284.955 90.247,283.348 91.985,282.231 92.834 C 276.189 97.427,272.707 100.889,268.929 106.063 C 268.230 107.020,266.909 108.342,265.995 109.002 C 261.052 112.564,256.763 116.855,252.929 122.073 C 252.230 123.025,250.909 124.342,249.995 125.002 C 245.052 128.564,240.763 132.855,236.929 138.073 C 236.230 139.025,234.911 140.342,233.998 141.002 C 229.387 144.331,224.941 148.695,222.385 152.400 C 220.784 154.721,218.715 156.792,216.554 158.238 C 213.746 160.116,208.940 164.920,206.134 168.655 C 204.850 170.363,202.990 172.349,202.000 173.068 C 196.682 176.934,192.321 181.451,189.901 185.600 C 186.818 190.887,184.616 191.920,174.888 192.641 C 170.494 192.967,170.525 192.938,172.056 195.216 C 175.317 200.066,174.495 203.001,168.969 206.239 C 166.769 207.529,161.187 213.613,158.439 217.718 C 156.757 220.229,155.813 221.182,153.588 222.608 C 150.035 224.885,145.235 229.449,143.356 232.338 C 141.362 235.401,139.824 236.997,137.119 238.809 C 133.548 241.201,128.499 246.293,126.780 249.235 C 125.276 251.809,123.213 254.006,120.933 255.462 C 119.916 256.111,117.813 257.942,114.802 260.800 C 114.223 261.350,112.787 262.970,111.612 264.400 C 110.436 265.830,108.774 267.517,107.917 268.150 L 106.359 269.300 108.279 270.596 C 110.950 272.400,113.558 275.303,115.513 278.651 C 117.445 281.959,119.006 283.445,122.230 285.045 C 125.414 286.625,129.055 290.318,131.304 294.248 C 133.384 297.885,134.360 298.838,138.214 300.993 C 141.733 302.961,145.004 306.291,147.276 310.217 C 149.457 313.986,150.027 314.547,154.132 316.959 C 159.079 319.865,164.400 325.120,164.400 327.100 C 164.400 327.871,167.909 330.748,168.661 330.595 C 180.585 328.161,183.662 327.099,185.259 324.866 C 187.369 321.917,191.625 317.678,195.543 314.625 C 198.124 312.613,200.390 310.414,201.931 308.426 C 204.969 304.507,208.510 300.966,212.436 297.923 C 214.257 296.512,216.564 294.186,218.051 292.264 C 221.308 288.053,225.502 283.870,228.880 281.466 C 230.617 280.229,232.225 278.617,233.453 276.880 C 235.754 273.624,240.897 268.244,244.326 265.506 C 245.716 264.397,248.074 262.029,249.566 260.245 C 253.012 256.124,256.182 252.950,260.080 249.716 C 261.775 248.311,264.311 245.775,265.716 244.080 C 268.957 240.173,272.173 236.957,276.080 233.716 C 277.775 232.311,280.311 229.775,281.716 228.080 C 284.957 224.173,288.173 220.957,292.080 217.716 C 293.775 216.311,296.311 213.775,297.716 212.080 C 300.941 208.192,304.123 205.013,308.207 201.597 C 309.971 200.122,312.581 197.454,314.007 195.667 C 315.433 193.881,318.220 190.936,320.200 189.123 C 322.180 187.311,325.600 183.935,327.800 181.621 C 330.000 179.307,333.599 175.701,335.797 173.607 C 337.995 171.513,341.595 167.913,343.797 165.607 C 345.999 163.301,349.587 159.701,351.771 157.607 C 356.803 152.783,360.343 149.207,367.560 141.653 L 373.319 135.624 374.827 131.629 C 378.790 121.126,378.712 119.706,374.000 116.563 C 369.547 113.592,366.752 110.553,364.219 105.926 C 362.591 102.952,361.210 101.633,356.800 98.840 C 353.254 96.595,350.283 93.472,348.488 90.104 C 346.834 87.002,344.963 85.141,341.865 83.518 C 338.672 81.846,333.774 76.964,332.113 73.800 C 329.685 69.172,328.977 68.785,317.800 65.972 C 315.160 65.307,312.730 64.686,312.400 64.592 C 312.070 64.497,310.450 65.335,308.800 66.453 " stroke="none" fill="#858685" fill-rule="evenodd"></path><path id="path3" d="M308.724 57.395 C 304.688 58.807,300.732 61.027,298.132 63.340 C 296.849 64.481,295.080 65.945,294.200 66.593 C 292.165 68.091,291.988 68.268,290.573 70.215 C 289.928 71.103,288.590 72.538,287.600 73.404 C 285.749 75.021,283.832 76.933,280.955 80.029 C 280.050 81.003,278.585 82.315,277.698 82.944 C 276.812 83.573,275.573 84.812,274.944 85.698 C 274.315 86.585,272.998 88.050,272.017 88.955 C 269.745 91.052,267.052 93.745,264.955 96.017 C 264.050 96.998,262.585 98.315,261.698 98.944 C 260.812 99.573,259.573 100.812,258.944 101.698 C 258.315 102.585,256.998 104.050,256.017 104.955 C 253.745 107.052,251.052 109.745,248.955 112.017 C 248.050 112.998,246.585 114.315,245.698 114.944 C 244.812 115.573,243.573 116.812,242.944 117.698 C 242.315 118.585,240.998 120.050,240.017 120.955 C 237.745 123.052,235.052 125.745,232.955 128.017 C 232.050 128.998,230.585 130.315,229.698 130.944 C 228.812 131.573,227.573 132.809,226.944 133.692 C 226.315 134.574,224.810 136.219,223.600 137.346 C 222.390 138.474,220.500 140.387,219.400 141.598 C 218.300 142.809,216.702 144.430,215.850 145.200 C 214.997 145.970,213.377 147.537,212.250 148.682 C 211.122 149.828,207.518 153.428,204.240 156.682 C 200.963 159.937,197.363 163.544,196.240 164.698 C 195.118 165.852,192.440 168.608,190.289 170.822 C 187.245 173.957,184.457 177.374,184.215 178.269 C 184.204 178.306,181.857 178.816,178.998 179.401 C 174.000 180.424,171.257 181.580,169.254 183.509 C 168.353 184.377,167.944 183.910,166.825 180.739 C 164.499 174.149,161.251 170.995,153.742 168.034 C 152.669 167.611,152.257 166.996,150.951 163.869 C 148.767 158.640,145.363 155.234,140.139 153.052 L 136.477 151.523 134.948 147.861 C 132.767 142.640,129.360 139.233,124.139 137.052 L 120.477 135.523 118.998 131.996 C 116.616 126.314,113.041 122.898,107.281 120.798 C 105.217 120.045,104.558 119.552,103.186 117.735 C 100.105 113.654,92.580 109.600,88.087 109.600 C 84.497 109.600,78.702 113.852,76.578 118.044 C 75.125 120.910,73.934 121.737,68.344 123.761 C 63.856 125.385,60.919 128.535,59.169 133.600 C 57.993 137.005,56.916 138.117,53.912 139.027 C 48.499 140.666,44.919 144.180,43.153 149.591 C 42.066 152.920,40.853 154.212,38.046 155.028 C 32.301 156.698,26.420 162.617,26.396 166.754 C 26.388 168.224,23.990 171.589,22.357 172.422 C 18.709 174.283,14.400 180.553,14.400 184.000 C 14.400 187.440,18.510 193.552,22.238 195.656 C 24.381 196.865,24.994 197.854,26.958 203.256 C 28.832 208.413,32.599 211.546,39.185 213.426 C 40.681 213.854,42.171 215.597,42.754 217.600 C 44.359 223.121,47.723 226.850,52.697 228.622 C 56.580 230.005,58.045 231.332,58.978 234.311 C 60.747 239.964,64.000 243.238,69.600 245.003 C 72.606 245.951,74.117 247.482,75.035 250.514 C 76.606 255.703,79.900 259.041,85.313 260.929 C 88.708 262.114,90.063 263.394,90.972 266.277 C 92.693 271.738,95.818 274.899,101.268 276.695 C 104.682 277.820,107.600 279.965,107.600 281.351 C 107.600 284.817,113.495 290.922,118.481 292.621 C 120.858 293.431,122.511 295.233,123.781 298.400 C 125.790 303.406,128.625 306.220,133.731 308.275 C 136.935 309.564,138.529 311.136,139.637 314.098 C 141.512 319.113,145.687 323.041,150.800 324.602 C 152.794 325.210,154.810 327.239,155.976 329.812 C 159.498 337.578,164.190 339.626,176.149 338.618 C 186.920 337.709,189.860 336.173,193.145 329.734 C 194.730 326.628,198.652 322.886,202.297 321.002 C 205.708 319.238,207.475 317.414,209.357 313.710 C 211.109 310.262,214.488 306.971,218.297 305.002 C 221.709 303.238,223.475 301.414,225.357 297.710 C 227.072 294.335,230.521 290.915,233.912 289.227 C 237.448 287.466,239.392 285.557,240.971 282.293 C 242.646 278.830,246.796 274.475,250.099 272.715 C 253.117 271.106,255.140 269.056,256.806 265.919 C 258.645 262.453,262.183 258.873,265.642 256.977 C 269.180 255.038,271.085 253.161,272.806 249.919 C 274.645 246.453,278.183 242.873,281.642 240.977 C 285.180 239.038,287.085 237.161,288.806 233.919 C 290.645 230.453,294.183 226.873,297.642 224.977 C 301.180 223.038,303.085 221.161,304.806 217.919 C 306.645 214.453,310.183 210.873,313.642 208.977 C 317.232 207.009,319.007 205.236,320.968 201.658 C 322.828 198.264,326.995 194.073,329.687 192.888 C 332.324 191.726,335.386 188.726,336.666 186.050 C 338.075 183.104,343.175 177.873,345.507 176.981 C 347.990 176.032,351.364 172.772,352.653 170.076 C 354.076 167.103,359.163 161.877,361.507 160.981 C 364.071 160.001,367.391 156.750,368.777 153.862 C 370.218 150.861,375.245 145.752,378.208 144.279 C 384.282 141.257,386.484 135.425,386.846 121.400 C 386.979 116.270,383.471 111.281,377.730 108.433 C 374.766 106.962,373.005 104.903,371.396 101.022 C 369.794 97.160,366.762 94.162,362.773 92.497 C 359.912 91.302,356.400 88.479,356.400 87.374 C 356.400 83.694,348.277 75.603,344.580 75.600 C 343.711 75.600,340.648 72.052,339.924 70.208 C 337.086 62.985,333.435 60.676,320.671 58.035 C 311.548 56.147,312.195 56.182,308.724 57.395 M317.800 65.972 C 328.977 68.785,329.685 69.172,332.113 73.800 C 333.774 76.964,338.672 81.846,341.865 83.518 C 344.963 85.141,346.834 87.002,348.488 90.104 C 350.283 93.472,353.254 96.595,356.800 98.840 C 361.210 101.633,362.591 102.952,364.219 105.926 C 366.752 110.553,369.547 113.592,374.000 116.563 C 378.712 119.706,378.790 121.126,374.827 131.629 L 373.319 135.624 367.560 141.653 C 360.343 149.207,356.803 152.783,351.771 157.607 C 349.587 159.701,345.999 163.301,343.797 165.607 C 341.595 167.913,337.995 171.513,335.797 173.607 C 333.599 175.701,330.000 179.307,327.800 181.621 C 325.600 183.935,322.180 187.311,320.200 189.123 C 318.220 190.936,315.433 193.881,314.007 195.667 C 312.581 197.454,309.971 200.122,308.207 201.597 C 304.123 205.013,300.941 208.192,297.716 212.080 C 296.311 213.775,293.775 216.311,292.080 217.716 C 288.173 220.957,284.957 224.173,281.716 228.080 C 280.311 229.775,277.775 232.311,276.080 233.716 C 272.173 236.957,268.957 240.173,265.716 244.080 C 264.311 245.775,261.775 248.311,260.080 249.716 C 256.182 252.950,253.012 256.124,249.566 260.245 C 248.074 262.029,245.716 264.397,244.326 265.506 C 240.897 268.244,235.754 273.624,233.453 276.880 C 232.225 278.617,230.617 280.229,228.880 281.466 C 225.502 283.870,221.308 288.053,218.051 292.264 C 216.564 294.186,214.257 296.512,212.436 297.923 C 208.510 300.966,204.969 304.507,201.931 308.426 C 200.390 310.414,198.124 312.613,195.543 314.625 C 191.625 317.678,187.369 321.917,185.259 324.866 C 183.662 327.099,180.585 328.161,168.661 330.595 C 167.909 330.748,164.400 327.871,164.400 327.100 C 164.400 325.120,159.079 319.865,154.132 316.959 C 150.027 314.547,149.457 313.986,147.276 310.217 C 145.004 306.291,141.733 302.961,138.214 300.993 C 134.360 298.838,133.384 297.885,131.304 294.248 C 129.055 290.318,125.414 286.625,122.230 285.045 C 119.005 283.444,117.444 281.958,115.512 278.647 C 112.702 273.830,108.151 269.689,104.927 269.015 C 103.263 268.667,100.353 266.076,98.408 263.211 C 96.171 259.917,93.070 257.028,89.359 254.781 C 85.699 252.564,83.779 250.651,81.151 246.600 C 78.857 243.064,76.934 241.141,73.400 238.850 C 69.850 236.548,67.446 234.143,65.155 230.600 C 62.983 227.243,60.574 224.783,57.600 222.888 C 53.622 220.354,52.061 218.819,49.460 214.885 C 46.485 210.388,45.373 209.267,41.000 206.358 C 36.803 203.567,34.395 201.015,33.233 198.125 C 32.122 195.361,28.821 189.051,26.933 186.082 L 25.587 183.964 26.721 182.282 C 28.706 179.339,31.445 174.310,32.974 170.800 C 34.736 166.756,36.545 164.726,41.000 161.793 C 44.743 159.328,47.335 156.742,49.411 153.400 C 51.442 150.129,53.688 147.839,56.920 145.743 C 60.795 143.230,62.937 141.123,65.371 137.427 C 68.093 133.293,70.342 131.240,74.366 129.217 C 78.867 126.954,81.644 125.114,85.076 122.121 C 86.701 120.703,88.159 119.602,88.315 119.672 C 88.472 119.743,89.861 120.636,91.403 121.657 C 94.074 123.426,99.136 125.856,103.351 127.394 C 105.789 128.283,110.461 132.833,113.603 137.378 C 115.387 139.960,116.438 140.995,119.200 142.889 C 123.611 145.914,125.976 148.209,128.429 151.842 C 130.931 155.551,132.449 157.069,136.158 159.571 C 139.791 162.024,142.086 164.389,145.111 168.800 C 147.004 171.559,148.042 172.615,150.622 174.400 C 154.961 177.404,159.068 181.604,161.183 185.200 C 165.451 192.459,167.306 193.395,175.768 192.560 C 185.303 191.619,186.830 190.867,189.901 185.600 C 192.321 181.451,196.682 176.934,202.000 173.068 C 202.990 172.349,204.850 170.363,206.134 168.655 C 208.940 164.920,213.746 160.116,216.554 158.238 C 218.715 156.792,220.784 154.721,222.385 152.400 C 224.941 148.695,229.387 144.331,233.998 141.002 C 234.911 140.342,236.230 139.025,236.929 138.073 C 240.763 132.855,245.052 128.564,249.995 125.002 C 250.909 124.342,252.230 123.025,252.929 122.073 C 256.763 116.855,261.052 112.564,265.995 109.002 C 266.909 108.342,268.230 107.020,268.929 106.063 C 272.707 100.889,276.189 97.427,282.231 92.834 C 283.348 91.985,284.955 90.247,285.802 88.971 C 287.811 85.944,293.448 80.285,297.066 77.663 C 298.801 76.405,300.484 74.759,301.332 73.493 C 303.676 69.987,310.914 64.167,312.400 64.592 C 312.730 64.686,315.160 65.307,317.800 65.972 " stroke="none" fill="#cccccc" fill-rule="evenodd"></path><path id="path4" d="" stroke="none" fill="#100d8e8" fill-rule="evenodd"></path></g></svg>